<?xml version="1.0" encoding="UTF-8"?>
<!DOCTYPE svg PUBLIC "-//W3C//DTD SVG 1.1//EN" "http://www.w3.org/Graphics/SVG/1.1/DTD/svg11.dtd">
<!-- Creator: CorelDRAW 2021 (64-Bit) -->
<svg xmlns="http://www.w3.org/2000/svg" xml:space="preserve" width="5.51181in" height="2.75591in" version="1.1" style="shape-rendering:geometricPrecision; text-rendering:geometricPrecision; image-rendering:optimizeQuality; fill-rule:evenodd; clip-rule:evenodd" viewBox="0 0 4950.37 2475.19" xmlns:xlink="http://www.w3.org/1999/xlink" xmlns:xodm="http://www.corel.com/coreldraw/odm/2003">
 <defs>
  <style type="text/css">
   <![CDATA[
    .fil0 {fill:black;fill-rule:nonzero}
   ]]>
  </style>
 </defs>
 <g id="Layer_x0020_1">
  <metadata id="CorelCorpID_0Corel-Layer"/>
  <g id="MTN_Logo">
   <path class="fil0" d="M2475.19 0c-1367,0 -2475.19,554.1 -2475.19,1237.59 0,683.5 1108.19,1237.59 2475.19,1237.59 1367,0 2475.19,-554.1 2475.19,-1237.59 0,-683.5 -1108.19,-1237.59 -2475.19,-1237.59zm0 2279.8c-1259.1,0 -2279.8,-466.61 -2279.8,-1042.21 0,-575.6 1020.71,-1042.21 2279.8,-1042.21 1259.1,0 2279.8,466.61 2279.8,1042.21 0,575.6 -1020.71,1042.21 -2279.8,1042.21zm-312.15 -1259.33l0 -195.42 698.28 0 0 195.42 -251.39 0 0 629.66 -195.46 0 0 -629.66 -251.43 0zm1541.15 -195.42l0 825.09 -195.38 0 -354.38 -491.17 0 491.17 -195.39 0 0 -825.09 195.38 0 354.38 491.17 0 -491.17 195.39 0zm-2463.82 825.09l0 -825.09 195.39 0 217.08 333.92 217.08 -333.92 195.31 0 0 825.09 -195.31 0 0 -466.69 -148.2 227.8 -137.76 0 -148.2 -227.8 0 466.69 -195.39 0z"/>
  </g>
 </g>
</svg>