<svg xmlns="http://www.w3.org/2000/svg" width="140" height="140" viewBox="0 0 186 185" fill="none" fill-rule="evenodd" xmlns:v="https://vecta.io/nano"><g fill="#33475b"><path d="M173.48 116.4l.001 20.172a4 4 0 0 1-2 3.464l-76.54 44.191a4 4 0 0 1-4 0L14.4 140.036a4 4 0 0 1-2-3.464V116.4h13.8v12.172a4 4 0 0 0 1.809 3.346l.191.118 62.684 36.191a4 4 0 0 0 3.791.112l.209-.112 62.684-36.191a4 4 0 0 0 1.994-3.239l.006-.225-.001-12.172h13.913zM94.94.536l76.54 44.191a4 4 0 0 1 2 3.464L173.48 68.4h-13.913l.001-12.209a4 4 0 0 0-1.809-3.346l-.191-.118-62.684-36.191a4 4 0 0 0-3.791-.112l-.209.112L28.2 52.726a4 4 0 0 0-1.994 3.239l-.006.225V68.4H12.4V48.191a4 4 0 0 1 2-3.464L90.94.536a4 4 0 0 1 4 0z"/><path d="M47.791 127.849c.339 0 .643-.048.913-.144s.5-.226.691-.391a1.8 1.8 0 0 0 .442-.559c.104-.208.156-.426.156-.654 0-.381-.084-.688-.251-.92s-.374-.421-.62-.564a3.57 3.57 0 0 0-.806-.342l-.806-.256c-.246-.086-.452-.189-.62-.308s-.251-.289-.251-.51a.72.72 0 0 1 .081-.33c.054-.106.131-.203.232-.291a1.08 1.08 0 0 1 .366-.205 1.46 1.46 0 0 1 .474-.073c.326 0 .59.102.793.305s.305.468.305.793h.952c0-.273-.05-.528-.151-.764s-.243-.443-.425-.62-.399-.316-.649-.415a2.22 2.22 0 0 0-.825-.149c-.312 0-.597.048-.854.144a2.15 2.15 0 0 0-.667.388 1.7 1.7 0 0 0-.43.559 1.52 1.52 0 0 0-.149.657c0 .368.083.662.249.881a1.95 1.95 0 0 0 .62.535 4.05 4.05 0 0 0 .806.334l.806.264c.247.09.454.201.62.334s.249.317.249.552c0 .254-.102.467-.305.64s-.518.259-.945.259c-.4 0-.701-.094-.901-.283s-.3-.461-.3-.815h0-.947a2.1 2.1 0 0 0 .144.789 1.66 1.66 0 0 0 .425.615 2.01 2.01 0 0 0 .676.4 2.63 2.63 0 0 0 .903.144zm6.25 0c.4 0 .782-.081 1.145-.244s.681-.389.955-.679a3.36 3.36 0 0 0 .654-1.016 3.22 3.22 0 0 0 .244-1.26 3.23 3.23 0 0 0-.244-1.255c-.163-.391-.381-.731-.654-1.021s-.592-.516-.955-.679-.745-.244-1.145-.244-.782.081-1.145.244-.681.389-.955.679-.492.63-.654 1.021a3.23 3.23 0 0 0-.244 1.255 3.22 3.22 0 0 0 .244 1.26 3.36 3.36 0 0 0 .654 1.016c.273.29.592.516.955.679s.745.244 1.145.244zm0-.85c-.26 0-.514-.059-.759-.176s-.464-.281-.654-.491-.344-.458-.461-.745-.176-.599-.176-.937.059-.656.176-.942.271-.535.461-.745.409-.373.654-.488.499-.173.759-.173a1.78 1.78 0 0 1 .762.173c.247.116.465.278.654.488s.342.459.459.747a2.47 2.47 0 0 1 .176.94c0 .339-.059.651-.176.938a2.54 2.54 0 0 1-.459.745 2.06 2.06 0 0 1-.654.491 1.76 1.76 0 0 1-.762.176zm8.452.801v-.898h-3.003v-5.4h-.947v6.299h3.95zm3.296.049c.342 0 .656-.058.942-.173a2.21 2.21 0 0 0 .745-.488c.21-.21.374-.459.491-.747a2.47 2.47 0 0 0 .176-.94h0v-3.999h-.952v3.999c0 .228-.035.433-.105.615a1.36 1.36 0 0 1-.295.469 1.37 1.37 0 0 1-.447.305 1.39 1.39 0 0 1-.554.11c-.199 0-.382-.037-.552-.11a1.38 1.38 0 0 1-.444-.305 1.36 1.36 0 0 1-.295-.469c-.07-.182-.105-.387-.105-.615h0v-3.999h-.952v3.999a2.47 2.47 0 0 0 .176.94c.117.288.281.537.491.747a2.21 2.21 0 0 0 .745.488c.286.116.599.173.938.173zm6.396-.049v-5.4h1.904v-.898h-4.751v.898h1.899v5.4h.947zm4.15 0v-6.299h-.947v6.299h.947zm4.497.049c.4 0 .782-.081 1.145-.244s.681-.389.955-.679a3.36 3.36 0 0 0 .654-1.016 3.22 3.22 0 0 0 .244-1.26 3.23 3.23 0 0 0-.244-1.255c-.163-.391-.381-.731-.654-1.021s-.592-.516-.955-.679-.745-.244-1.145-.244-.782.081-1.145.244-.681.389-.955.679-.492.63-.654 1.021a3.23 3.23 0 0 0-.244 1.255 3.22 3.22 0 0 0 .244 1.26 3.36 3.36 0 0 0 .654 1.016c.273.29.592.516.955.679s.745.244 1.145.244zm0-.85c-.26 0-.514-.059-.759-.176s-.464-.281-.654-.491-.344-.458-.461-.745-.176-.599-.176-.937.059-.656.176-.942.271-.535.461-.745.409-.373.654-.488.499-.173.759-.173a1.78 1.78 0 0 1 .762.173c.247.116.465.278.654.488s.342.459.459.747a2.47 2.47 0 0 1 .176.94c0 .339-.059.651-.176.938a2.54 2.54 0 0 1-.459.745 2.06 2.06 0 0 1-.654.491 1.76 1.76 0 0 1-.762.176zm5.449.801v-4.502l3.052 4.502h.801v-6.299h-.952v4.497l-3.052-4.497h-.796v6.299h.947zm7.5.049c.339 0 .643-.048.913-.144s.5-.226.691-.391a1.8 1.8 0 0 0 .442-.559c.104-.208.156-.426.156-.654 0-.381-.084-.688-.251-.92s-.374-.421-.62-.564a3.57 3.57 0 0 0-.806-.342l-.806-.256c-.246-.086-.452-.189-.62-.308s-.251-.289-.251-.51a.72.72 0 0 1 .081-.33c.054-.106.131-.203.232-.291a1.08 1.08 0 0 1 .366-.205 1.46 1.46 0 0 1 .474-.073c.326 0 .59.102.793.305s.305.468.305.793h.952c0-.273-.05-.528-.151-.764s-.243-.443-.425-.62-.399-.316-.649-.415a2.22 2.22 0 0 0-.825-.149c-.312 0-.597.048-.854.144a2.15 2.15 0 0 0-.667.388 1.7 1.7 0 0 0-.43.559 1.52 1.52 0 0 0-.149.657c0 .368.083.662.249.881a1.95 1.95 0 0 0 .62.535 4.05 4.05 0 0 0 .806.334l.806.264c.247.09.454.201.62.334s.249.317.249.552c0 .254-.102.467-.305.64s-.518.259-.945.259c-.4 0-.701-.094-.901-.283s-.3-.461-.3-.815h0-.947a2.1 2.1 0 0 0 .144.789 1.66 1.66 0 0 0 .425.615 2.01 2.01 0 0 0 .676.4 2.63 2.63 0 0 0 .903.144zm7.196-.049v-2.3h1.353a1.89 1.89 0 0 0 .774-.161 2.1 2.1 0 0 0 .635-.43c.181-.179.324-.391.43-.635a1.93 1.93 0 0 0 .159-.776c0-.273-.053-.531-.159-.774s-.249-.454-.43-.635-.392-.324-.635-.43-.5-.159-.774-.159h0-2.3v6.299h.947zm1.353-3.198h-1.353V122.4h1.353c.14 0 .273.03.398.09s.237.14.334.239a1.12 1.12 0 0 1 .232.349 1.06 1.06 0 0 1 .085.42c0 .153-.028.296-.085.43a1.15 1.15 0 0 1-.232.352 1.09 1.09 0 0 1-.334.237.95.95 0 0 1-.398.085h0zm3.447 3.198l.547-1.45h2.5l.552 1.45h1.001l-2.402-6.299h-.796l-2.402 6.299h1.001zm2.7-2.349h-1.802l.898-2.5.903 2.5zm3.994 2.349v-2.5h1.099l1.45 2.5h1.05l-1.548-2.598a2.19 2.19 0 0 0 .698-.361c.176-.133.337-.315.483-.544s.22-.528.22-.896a1.84 1.84 0 0 0-.151-.74c-.101-.233-.236-.435-.405-.605s-.37-.306-.603-.405-.479-.149-.74-.149h0-2.5v6.299h.947zm1.553-3.398h-1.553V122.4h1.553a.82.82 0 0 1 .359.081c.112.054.212.125.298.215s.156.194.21.315a.95.95 0 0 1 .081.391.95.95 0 0 1-.081.391c-.054.12-.124.225-.21.315s-.186.161-.298.215a.82.82 0 0 1-.359.081h0zm5.644 3.398v-5.4h1.904v-.898h-4.751v.898h1.899v5.4h.947zm4.15 0v-4.502l3.052 4.502h.801v-6.299h-.952v4.497l-3.052-4.497h-.796v6.299h.947zm10 0v-.898h-3.301v-1.899h2.949v-.903h-2.949V122.4h3.203v-.898h-4.15v6.299h4.248zm2.597 0v-2.5h1.099l1.45 2.5h1.05l-1.548-2.598a2.19 2.19 0 0 0 .698-.361c.176-.133.337-.315.483-.544s.22-.528.22-.896a1.84 1.84 0 0 0-.151-.74c-.101-.233-.236-.435-.405-.605s-.37-.306-.603-.405-.479-.149-.74-.149h0-2.5v6.299h.947zm1.553-3.398h-1.553V122.4h1.553a.82.82 0 0 1 .359.081c.112.054.212.125.298.215s.156.194.21.315a.95.95 0 0 1 .081.391.95.95 0 0 1-.081.391c-.054.12-.124.225-.21.315s-.186.161-.298.215a.82.82 0 0 1-.359.081h0zM71.71 140v-2.3h1.353a1.89 1.89 0 0 0 .774-.161 2.1 2.1 0 0 0 .635-.43c.181-.179.324-.391.43-.635a1.93 1.93 0 0 0 .159-.776c0-.273-.053-.531-.159-.774s-.249-.454-.43-.635-.392-.324-.635-.43-.5-.159-.774-.159h0-2.3V140h.947zm1.353-3.198H71.71V134.6h1.353c.14 0 .273.03.398.09s.237.14.334.239a1.12 1.12 0 0 1 .232.349 1.06 1.06 0 0 1 .085.42c0 .153-.028.296-.085.43a1.15 1.15 0 0 1-.232.352 1.09 1.09 0 0 1-.334.237.95.95 0 0 1-.398.085h0zM77.505 140v-2.5h1.099l1.45 2.5h1.05l-1.548-2.598a2.19 2.19 0 0 0 .698-.361c.176-.133.337-.315.483-.544s.22-.528.22-.896a1.84 1.84 0 0 0-.151-.74c-.101-.233-.236-.435-.405-.605s-.37-.306-.603-.405-.479-.149-.74-.149h0-2.5V140h.947zm1.553-3.398h-1.553V134.6h1.553a.82.82 0 0 1 .359.081c.112.054.212.125.298.215s.156.194.21.315a.95.95 0 0 1 .081.391.95.95 0 0 1-.081.391c-.054.12-.124.225-.21.315s-.186.161-.298.215a.82.82 0 0 1-.359.081h0zm6.093 3.447c.4 0 .782-.081 1.145-.244s.681-.389.955-.679a3.36 3.36 0 0 0 .654-1.016 3.22 3.22 0 0 0 .244-1.26 3.23 3.23 0 0 0-.244-1.255c-.163-.391-.381-.731-.654-1.021s-.592-.516-.955-.679-.745-.244-1.145-.244-.782.081-1.145.244-.681.389-.955.679-.492.63-.654 1.021a3.23 3.23 0 0 0-.244 1.255 3.22 3.22 0 0 0 .244 1.26 3.36 3.36 0 0 0 .654 1.016c.273.29.592.516.955.679s.745.244 1.145.244zm0-.85c-.26 0-.514-.059-.759-.176s-.464-.281-.654-.491-.344-.458-.461-.745-.176-.599-.176-.937.059-.656.176-.942.271-.535.461-.745.409-.373.654-.488.499-.173.759-.173a1.78 1.78 0 0 1 .762.173c.247.116.465.278.654.488s.342.459.459.747a2.47 2.47 0 0 1 .176.94c0 .339-.059.651-.176.938a2.54 2.54 0 0 1-.459.745 2.06 2.06 0 0 1-.654.491 1.76 1.76 0 0 1-.762.176zm7.099.85a2.73 2.73 0 0 0 .764-.098 3 3 0 0 0 .564-.22 2.05 2.05 0 0 0 .474-.332h0l.249.601H95v-3.252h-2.798v.903h1.899a1.95 1.95 0 0 1-.215.598c-.104.187-.236.351-.396.491a1.88 1.88 0 0 1-.554.334 1.85 1.85 0 0 1-.686.125c-.26 0-.514-.059-.759-.176s-.464-.281-.654-.491-.344-.458-.461-.745-.176-.599-.176-.937.059-.656.176-.942.271-.535.461-.745.409-.373.654-.488.499-.173.759-.173c.228 0 .435.035.62.105s.35.161.493.273a1.57 1.57 0 0 1 .361.4c.098.155.173.312.225.471h1.001a2.79 2.79 0 0 0-.349-.791c-.161-.254-.356-.478-.586-.671a2.75 2.75 0 0 0-.796-.464 2.68 2.68 0 0 0-.969-.173c-.4 0-.782.081-1.145.244s-.681.389-.955.679-.492.63-.654 1.021a3.23 3.23 0 0 0-.244 1.255 3.22 3.22 0 0 0 .244 1.26 3.36 3.36 0 0 0 .654 1.016c.273.29.592.516.955.679s.745.244 1.145.244zM97.7 140v-2.5h1.099l1.45 2.5h1.05l-1.548-2.598a2.19 2.19 0 0 0 .698-.361c.176-.133.337-.315.483-.544s.22-.528.22-.896a1.84 1.84 0 0 0-.151-.74c-.101-.233-.236-.435-.405-.605s-.37-.306-.603-.405-.479-.149-.74-.149h0-2.5V140h.947zm1.553-3.398H97.7V134.6h1.553a.82.82 0 0 1 .359.081c.112.054.212.125.298.215s.156.194.21.315a.95.95 0 0 1 .081.391.95.95 0 0 1-.081.391c-.054.12-.124.225-.21.315s-.186.161-.298.215a.82.82 0 0 1-.359.081h0zm3.745 3.398l.547-1.45h2.5l.552 1.45h1.001l-2.402-6.299h-.796L101.996 140h1.001zm2.7-2.349h-1.802l.898-2.5.903 2.5zm3.994 2.349v-3.901l1.802 3.901h.601l1.797-3.901V140h.952v-6.299h-.801l-2.251 4.849-2.251-4.849h-.796V140h.947z" fill-rule="nonzero"/></g><rect fill="#ff7a59" y="71.2" width="186" height="40" rx="2"/><g fill-rule="nonzero"><path d="M57.358 100.2v-6.439h3.787a5.29 5.29 0 0 0 2.167-.451c.679-.301 1.271-.702 1.777-1.203a5.62 5.62 0 0 0 1.203-1.777 5.41 5.41 0 0 0 .444-2.174 5.36 5.36 0 0 0-.444-2.167c-.296-.679-.697-1.271-1.203-1.777s-1.098-.907-1.777-1.203a5.36 5.36 0 0 0-2.167-.444h0-6.439V100.2h2.652zm3.787-8.955h-3.787v-6.166h3.787a2.54 2.54 0 0 1 1.114.253 3.32 3.32 0 0 1 .937.67c.273.278.49.604.649.978s.239.766.239 1.176c0 .428-.08.829-.239 1.203s-.376.702-.649.984a3.05 3.05 0 0 1-.937.663 2.66 2.66 0 0 1-1.114.239h0zm11.464 9.092c.638 0 1.185-.071 1.641-.212s.834-.303 1.135-.485a3.93 3.93 0 0 0 .875-.697h0l.561 1.258h1.818v-8.258c0-.638-.118-1.228-.355-1.771s-.57-1.014-.998-1.415-.946-.718-1.552-.95-1.274-.349-2.003-.349c-1.549 0-2.757.374-3.623 1.121s-1.335 1.682-1.408 2.803h2.516c.073-.428.301-.793.684-1.094s.993-.451 1.832-.451c.784 0 1.376.191 1.777.574s.602.893.602 1.531h0v.424c-1.549 0-2.828.103-3.835.308s-1.805.488-2.393.848-1.003.798-1.244 1.313-.362 1.091-.362 1.729c0 1.121.371 2.03 1.114 2.728s1.816 1.046 3.22 1.046zm.15-2.242c-.638 0-1.126-.144-1.463-.431s-.506-.608-.506-.964c0-.319.066-.608.198-.868s.394-.479.786-.656.932-.319 1.62-.424 1.593-.157 2.714-.157h0v.684c0 .784-.292 1.449-.875 1.996s-1.408.82-2.475.82zm11.327 2.105v-7.137c0-.41.08-.802.239-1.176s.378-.702.656-.984a3.21 3.21 0 0 1 .978-.677 2.89 2.89 0 0 1 1.203-.253c.1 0 .201.011.301.034l.287.062.26.055v-2.529l-.219-.055-.267-.055a1.99 1.99 0 0 0-.362-.027c-.538 0-1.007.075-1.408.226s-.734.308-.998.472a4.06 4.06 0 0 0-.807.711h0l-.561-1.271h-1.818V100.2h2.516zm10.917.137c.383 0 .715-.046.998-.137.155-.036.287-.082.396-.137h0v-2.242c-.082.036-.169.064-.26.082a2.69 2.69 0 0 1-.294.041l-.294.014c-.556 0-1.021-.187-1.395-.561s-.561-.839-.561-1.395h0v-6.029h2.803v-2.379h-2.803v-3.35h-2.092v1.682c0 .483-.16.882-.479 1.196s-.72.472-1.203.472h0-.984v2.379h2.242v6.029c0 .674.098 1.276.294 1.805s.472.98.827 1.354.772.663 1.251.868.996.308 1.552.308zm6.57-.137v-7.273a2.95 2.95 0 0 1 .239-1.183 3.18 3.18 0 0 1 .656-.978 3.21 3.21 0 0 1 .978-.677 2.89 2.89 0 0 1 1.203-.253c.392 0 .766.084 1.121.253s.67.394.943.677.49.611.649.984.239.766.239 1.176h0v7.273h2.516v-7.273c0-.811-.132-1.552-.396-2.222a5.19 5.19 0 0 0-1.08-1.716 5.05 5.05 0 0 0-1.606-1.121c-.615-.273-1.269-.41-1.962-.41-.638 0-1.185.075-1.641.226s-.834.308-1.135.472a4.42 4.42 0 0 0-.861.711h0l-.561-1.271h-1.818V100.2h2.516zm16.933.137c.729 0 1.388-.098 1.976-.294s1.105-.467 1.552-.813.829-.747 1.148-1.203.583-.943.793-1.463h0-2.666c-.201.273-.526.574-.978.902s-1.06.492-1.825.492a3.41 3.41 0 0 1-1.271-.239c-.401-.16-.745-.374-1.032-.643a3.63 3.63 0 0 1-.718-.937 2.91 2.91 0 0 1-.342-1.121h8.969l.055-.328.055-.362a3.36 3.36 0 0 0 .027-.431c0-.948-.155-1.814-.465-2.598s-.729-1.461-1.258-2.03a5.65 5.65 0 0 0-1.873-1.333c-.72-.319-1.481-.479-2.283-.479s-1.563.16-2.283.479a5.65 5.65 0 0 0-1.873 1.333c-.529.57-.948 1.246-1.258 2.03s-.465 1.65-.465 2.598c0 .957.155 1.827.465 2.611a6.17 6.17 0 0 0 1.285 2.03 5.82 5.82 0 0 0 1.914 1.326c.729.314 1.513.472 2.352.472zm3.363-7.41h-6.727c.155-.921.522-1.666 1.101-2.235s1.287-.854 2.126-.854c.993 0 1.789.287 2.386.861s.968 1.317 1.114 2.229h0zm7.267 7.273v-7.137c0-.41.08-.802.239-1.176s.378-.702.656-.984a3.21 3.21 0 0 1 .978-.677 2.89 2.89 0 0 1 1.203-.253c.1 0 .201.011.301.034l.287.062.26.055v-2.529l-.219-.055-.267-.055a1.99 1.99 0 0 0-.362-.027c-.538 0-1.007.075-1.408.226s-.734.308-.998.472a4.06 4.06 0 0 0-.807.711h0l-.561-1.271h-1.818V100.2h2.516z" fill="#fff"/><path d="M65.861 47.95v5.509h-5.059V47.95H58.4v13.151h2.402v-5.33h5.059v5.33h2.402V47.95zm10.09 8.9a1.99 1.99 0 0 1-1.987 1.987 1.99 1.99 0 0 1-1.987-1.987v-5.633h-2.278v5.633c0 2.354 1.908 4.262 4.262 4.262s4.262-1.908 4.262-4.262v-5.633h-2.27v5.633zm16.881-5.052c0-1.155.764-1.521 1.601-1.521.674 0 1.565.513 2.148 1.136l1.492-1.758c-.745-1.007-2.256-1.704-3.493-1.704-2.471 0-4.259 1.448-4.259 3.847 0 4.452 5.442 3.04 5.442 5.531 0 .769-.746 1.448-1.601 1.448-1.348 0-1.784-.659-2.403-1.356l-1.656 1.722c1.059 1.3 2.366 1.961 3.931 1.961 2.348 0 4.237-1.465 4.237-3.755 0-4.943-5.442-3.407-5.442-5.55M126.499 59c-1.346 0-1.729-.583-1.729-1.475v-3.948h2.093v-2.001h-2.093v-2.64l-2.31 1.037v8.043c0 2.057 1.419 3.094 3.366 3.094a4.64 4.64 0 0 0 .911-.073l.564-2.075-.801.035m-41.876-7.714c-1.129 0-1.916.327-2.677 1.075v-4.329h-2.282v8.023c0 3.003 2.171 5.061 4.611 5.061 2.707 0 5.088-2.094 5.088-4.914 0-2.785-2.191-4.915-4.739-4.915m-.014 7.532a2.59 2.59 0 0 1-2.589-2.589 2.59 2.59 0 0 1 2.589-2.589 2.59 2.59 0 0 1 2.589 2.589 2.59 2.59 0 0 1-2.589 2.589m24.791-2.737c0-2.825-2.376-4.914-5.088-4.914-2.44 0-4.611 2.057-4.611 5.061v8.028h2.282V59.92c.76.746 1.549 1.075 2.676 1.075 2.548 0 4.739-2.129 4.739-4.915m-2.16-.028a2.59 2.59 0 0 1-2.589 2.589 2.59 2.59 0 0 1-2.589-2.589 2.59 2.59 0 0 1 2.589-2.589 2.59 2.59 0 0 1 2.589 2.589" fill="#33475b"/><path d="M116.774 51.055v-2.293c.618-.289 1.015-.909 1.018-1.591v-.053c0-.975-.79-1.765-1.765-1.765h-.053c-.975 0-1.765.79-1.765 1.765v.053c.003.683.4 1.302 1.018 1.591v2.293a5 5 0 0 0-2.377 1.046l-6.287-4.897a1.97 1.97 0 0 0 .071-.495 1.99 1.99 0 0 0-3.393-1.412 1.99 1.99 0 0 0 1.402 3.397 1.97 1.97 0 0 0 .979-.266l6.192 4.817c-1.139 1.72-1.108 3.961.076 5.649l-1.883 1.883c-.152-.049-.311-.074-.471-.076-.902.001-1.633.732-1.632 1.634s.731 1.633 1.633 1.633 1.633-.73 1.634-1.632a1.61 1.61 0 0 0-.076-.471l1.863-1.863c1.665 1.281 3.95 1.391 5.73.276s2.678-3.22 2.252-5.276-2.087-3.631-4.164-3.946m-.772 7.539a2.58 2.58 0 0 1-2.575-2.579 2.58 2.58 0 0 1 2.577-2.576 2.58 2.58 0 0 1 2.577 2.576 2.58 2.58 0 0 1-2.577 2.577" fill="#ff7a59"/></g></svg>